<?xml version="1.0" encoding="utf-8"?>
<svg xmlns="http://www.w3.org/2000/svg" viewBox="-202.371 183.168 799.863 132.187">
  <g transform="matrix(0.024768, 0, 0, -0.024768, -235.920398, 557.17225)" fill="#000000" stroke="none" style="">
    <path d="M5640 12695 l0 -1065 190 0 190 0 0 319 c0 199 4 330 11 348 12 32 201 228 241 249 43 23 112 18 145 -10 16 -13 179 -223 363 -465 l335 -441 229 0 228 0 -24 33 c-14 17 -112 147 -219 289 -107 141 -309 408 -449 594 -140 185 -257 341 -259 347 -2 5 189 202 425 438 l429 429 -165 0 -165 0 -105 -106 c-58 -58 -265 -263 -462 -455 l-356 -349 -55 0 c-46 0 -61 5 -88 27 -58 50 -59 54 -59 488 l0 395 -190 0 -190 0 0 -1065z"/>
    <path d="M15100 12695 l0 -1066 663 4 c725 4 744 5 927 67 113 38 189 81 260 147 104 96 150 206 150 358 0 204 -79 331 -262 423 -76 38 -198 74 -368 109 -20 4 -10 9 45 25 182 50 352 173 415 301 84 171 57 342 -74 472 -99 97 -235 159 -436 198 -96 18 -154 20 -712 24 l-608 4 0 -1066z m1195 871 c145 -41 236 -107 275 -198 17 -40 22 -71 22 -138 0 -110 -25 -180 -92 -253 -56 -61 -116 -97 -215 -126 -99 -30 -199 -38 -523 -40 l-283 -2 3 343 c3 381 2 376 71 419 31 19 46 20 357 16 269 -3 335 -7 385 -21z m-58 -931 c355 -53 516 -222 474 -495 -20 -128 -85 -222 -189 -278 -107 -57 -151 -62 -568 -63 -417 0 -398 -3 -448 65 -20 26 -21 42 -24 407 l-3 379 327 0 c243 0 353 -4 431 -15z"/>
    <path d="M19457 13708 c-20 -6 -58 -29 -83 -52 -148 -134 -43 -366 167 -366 161 0 267 129 225 273 -35 119 -169 182 -309 145z"/>
    <path d="M21493 13704 c-10 -5 -13 -98 -13 -419 l0 -414 -82 83 c-90 91 -172 138 -298 172 -92 25 -339 26 -430 1 -255 -68 -438 -248 -510 -497 -15 -53 -23 -116 -27 -212 -5 -118 -3 -150 16 -231 88 -379 415 -611 826 -584 186 13 303 63 423 183 l82 83 0 -119 0 -120 170 0 170 0 -2 1038 -3 1037 -155 2 c-85 1 -161 -1 -167 -3z m-443 -694 c197 -31 359 -203 406 -429 60 -290 -12 -588 -175 -732 -98 -87 -200 -118 -354 -108 -77 5 -107 12 -162 37 -131 62 -229 196 -275 377 -24 92 -29 310 -10 413 58 320 275 488 570 442z"/>
    <path d="M3615 13626 c-186 -44 -347 -154 -444 -303 -19 -29 -52 -64 -75 -79 -155 -102 -267 -257 -312 -434 -22 -85 -22 -234 0 -325 38 -159 148 -318 290 -420 36 -25 78 -68 100 -100 151 -219 420 -341 673 -306 204 29 397 150 502 316 18 28 56 65 98 95 143 100 252 260 289 426 22 102 15 271 -16 364 -22 66 -67 154 -102 200 -40 52 -135 143 -181 173 -27 17 -68 58 -92 92 -97 135 -224 231 -370 281 -99 33 -265 42 -360 20z m343 -79 c101 -35 174 -80 250 -155 36 -34 63 -64 61 -66 -2 -2 -35 4 -74 14 -94 25 -274 26 -367 1 -65 -17 -71 -17 -135 0 -94 25 -264 25 -365 0 -43 -10 -78 -15 -78 -11 0 5 31 37 70 73 81 75 179 130 282 157 104 29 255 23 356 -13z m-325 -254 l38 -6 -43 -25 c-75 -44 -156 -113 -199 -169 -23 -30 -70 -77 -103 -104 -75 -62 -127 -121 -171 -195 l-34 -56 -8 28 c-4 16 -8 81 -7 144 1 95 6 129 28 196 14 45 35 92 45 106 17 21 124 66 196 81 32 7 216 7 258 0z m552 -13 c42 -11 96 -30 118 -42 36 -20 44 -32 68 -100 44 -120 54 -230 33 -366 l-5 -33 -48 73 c-26 41 -80 102 -120 138 -40 36 -85 78 -100 94 -104 116 -145 155 -210 197 -70 45 -72 48 -45 52 84 12 234 6 309 -13z m-352 -58 c62 -34 170 -112 164 -119 -2 -1 -27 4 -57 13 -116 31 -293 27 -405 -11 -41 -14 73 76 145 114 41 22 77 40 80 41 3 0 35 -17 73 -38z m-757 -101 c-40 -112 -44 -282 -11 -412 15 -57 15 -66 -2 -128 -25 -94 -23 -292 4 -383 l20 -67 -38 30 c-44 35 -121 134 -154 199 -84 167 -90 371 -14 546 27 64 96 160 153 212 25 23 48 42 50 42 3 0 -1 -17 -8 -39z m1466 -65 c98 -122 148 -259 148 -406 0 -173 -56 -312 -178 -441 -41 -44 -76 -78 -77 -77 -2 2 6 37 17 78 27 99 28 267 3 364 -17 66 -17 72 1 150 24 106 22 265 -3 363 l-19 73 30 -24 c17 -12 52 -49 78 -80z m-612 -1 c95 -29 157 -64 180 -100 67 -109 96 -300 66 -436 -18 -84 -63 -185 -93 -212 -25 -21 -126 -63 -190 -78 -128 -29 -302 -5 -426 58 -42 21 -53 33 -77 87 -42 93 -60 174 -60 273 0 148 57 313 122 353 37 22 131 56 199 70 61 13 213 5 279 -15z m-641 -232 c-24 -91 -24 -255 0 -346 l17 -67 -24 22 c-30 27 -103 140 -122 186 -12 30 -10 37 18 95 26 51 115 177 125 177 2 0 -5 -30 -14 -67z m976 5 c26 -35 61 -89 77 -122 l30 -59 -37 -72 c-20 -39 -56 -94 -80 -121 l-43 -49 19 80 c28 120 21 293 -16 388 -13 32 3 18 50 -45z m-980 -483 c37 -33 82 -76 99 -95 82 -93 176 -179 226 -207 48 -28 52 -33 35 -40 -11 -4 -76 -8 -145 -7 -108 0 -136 4 -207 27 -44 15 -91 35 -102 45 -49 39 -98 253 -87 378 9 112 12 113 65 31 26 -40 78 -99 116 -132z m1127 55 c1 -111 -22 -222 -62 -300 -17 -33 -29 -41 -92 -64 -90 -32 -162 -46 -243 -46 -73 0 -155 10 -155 19 0 3 25 21 55 39 66 40 153 118 186 167 13 20 56 62 95 94 72 60 146 147 179 211 l18 35 9 -25 c6 -14 10 -72 10 -130z m-457 -245 c-69 -62 -178 -119 -213 -110 -53 13 -223 127 -209 141 2 2 18 -1 36 -6 116 -33 290 -31 387 4 22 8 41 15 44 15 3 0 -17 -20 -45 -44z m-637 -202 c79 -24 293 -24 380 -1 57 16 67 16 120 2 122 -33 270 -29 432 11 19 5 7 -11 -51 -68 -149 -146 -348 -209 -547 -173 -103 18 -212 69 -298 137 -58 46 -115 109 -99 109 4 0 32 -8 63 -17z"/>
    <path d="M11597 13503 c-2 -21 -5 -94 -7 -163 -1 -69 -3 -141 -5 -160 -2 -19 -4 -40 -4 -47 -1 -9 -34 -13 -112 -15 l-111 -3 -19 -50 c-35 -93 -40 -85 48 -85 100 0 140 -19 171 -80 22 -44 22 -47 22 -500 0 -372 3 -466 15 -513 56 -214 196 -299 468 -284 104 6 182 20 250 46 26 10 27 13 27 82 0 64 -2 70 -17 64 -95 -40 -125 -47 -193 -48 -59 -1 -82 3 -110 19 -41 23 -76 71 -90 123 -6 22 -10 225 -10 515 0 462 1 480 20 511 33 54 70 65 217 65 l129 0 18 58 c10 31 21 63 23 70 4 9 -40 12 -201 12 l-206 0 0 210 0 210 -159 0 -159 0 -5 -37z"/>
    <path d="M26497 13154 c-4 -4 -7 -342 -7 -751 l0 -743 75 0 75 0 0 155 c0 115 4 163 14 183 18 35 194 194 209 189 10 -2 352 -461 385 -515 6 -9 30 -12 85 -10 l76 3 -220 304 c-120 168 -219 310 -219 316 0 5 95 105 210 220 116 115 210 213 210 218 0 4 -34 7 -75 6 l-75 -2 -271 -261 c-150 -144 -278 -265 -286 -269 -8 -5 -20 -4 -28 3 -12 10 -15 88 -17 484 l-3 471 -65 3 c-36 2 -69 0 -73 -4z"/>
    <path d="M28777 13153 c-4 -3 -7 -51 -7 -105 l0 -98 75 0 75 0 0 105 0 105 -68 0 c-38 0 -72 -3 -75 -7z"/>
    <path d="M8385 13144 c-232 -37 -397 -126 -485 -264 -33 -52 -70 -154 -70 -196 l0 -24 125 0 125 0 6 28 c34 154 124 257 263 300 80 24 276 24 350 -1 111 -37 188 -113 216 -212 9 -28 16 -93 18 -143 l2 -92 -255 0 c-277 0 -392 -9 -515 -41 -280 -72 -419 -256 -384 -510 27 -189 138 -301 357 -361 117 -32 366 -32 477 0 117 34 190 77 272 158 l71 72 7 -47 c3 -25 13 -76 22 -113 l15 -68 157 0 158 0 -13 74 c-24 137 -34 337 -34 660 0 349 -6 399 -56 499 -38 74 -129 159 -216 201 -121 58 -218 77 -413 81 -93 2 -183 1 -200 -1z m543 -916 c-3 -165 -4 -176 -31 -232 -74 -159 -216 -251 -399 -259 -126 -6 -241 28 -302 89 -16 16 -40 54 -55 84 -35 76 -36 210 -3 286 41 92 135 160 252 183 30 6 64 13 75 15 11 2 120 4 243 5 l224 1 -4 -172z"/>
    <path d="M13215 13139 c-197 -29 -386 -131 -501 -270 -59 -72 -98 -148 -130 -254 -24 -80 -27 -107 -28 -240 -1 -128 3 -162 22 -228 78 -270 268 -446 558 -519 122 -30 388 -32 509 -4 223 52 392 162 480 312 24 41 65 145 65 166 0 5 -59 7 -130 6 l-131 -3 -24 -68 c-25 -72 -49 -110 -110 -169 -140 -136 -438 -169 -634 -71 -111 56 -206 184 -245 329 -9 32 -19 103 -23 157 l-6 97 661 0 662 0 0 48 c0 130 -51 300 -120 406 -108 165 -267 260 -500 301 -91 16 -277 18 -375 4z m320 -144 c150 -39 264 -150 314 -307 17 -50 1 -97 -45 -138 l-35 -30 -365 0 c-410 0 -403 -1 -444 73 -30 52 -23 109 21 183 68 112 164 187 280 218 72 19 201 20 274 1z"/>
    <path d="M17955 13140 c-274 -42 -464 -191 -519 -406 -9 -34 -16 -65 -16 -68 0 -3 58 -6 129 -6 l129 0 7 40 c11 63 61 154 111 200 89 82 205 116 364 107 170 -9 270 -64 329 -180 32 -62 35 -76 39 -177 l5 -110 -252 0 c-361 0 -517 -22 -661 -92 -82 -40 -169 -122 -203 -192 -97 -198 -28 -459 150 -563 112 -65 294 -100 471 -90 200 12 333 66 449 184 69 70 73 72 73 46 1 -15 9 -66 18 -113 l18 -85 157 -3 c122 -2 157 0 157 10 0 7 -7 56 -16 108 -12 70 -18 209 -23 535 -7 415 -9 444 -29 507 -54 162 -190 271 -411 330 -87 23 -372 34 -476 18z m575 -883 c0 -205 -26 -289 -120 -386 -90 -92 -192 -132 -344 -132 -219 -2 -337 91 -353 277 -17 210 90 334 324 374 26 4 148 8 271 9 l222 1 0 -143z"/>
    <path d="M24605 13136 c-293 -46 -459 -177 -472 -374 -6 -80 6 -131 46 -194 76 -119 252 -192 623 -258 356 -64 469 -130 469 -278 1 -140 -91 -234 -272 -277 -78 -18 -279 -14 -354 8 -152 43 -258 142 -283 264 l-8 38 -133 2 -134 3 6 -38 c12 -73 73 -176 142 -241 129 -120 297 -178 545 -188 334 -13 589 54 726 191 79 79 107 147 106 261 -1 246 -181 383 -612 466 -397 76 -477 104 -513 182 -54 113 15 229 166 278 61 20 92 24 207 24 115 0 145 -3 202 -23 125 -44 212 -125 249 -235 l18 -52 132 -3 132 -3 -6 42 c-9 65 -63 165 -123 223 -58 58 -152 112 -252 145 -140 47 -428 64 -607 37z"/>
    <path d="M9543 13078 c14 -24 107 -196 207 -383 101 -187 195 -362 210 -390 199 -366 291 -548 301 -594 30 -140 -9 -268 -116 -377 -144 -146 -342 -176 -484 -73 -23 16 -42 29 -43 29 -2 0 -21 -34 -43 -76 l-40 -75 29 -24 c72 -58 296 -93 417 -65 177 41 336 180 465 407 28 48 196 390 374 758 177 369 344 714 371 767 74 151 78 138 -43 138 l-104 0 -18 -40 c-9 -22 -69 -146 -133 -277 -63 -131 -157 -324 -208 -428 -60 -126 -101 -198 -119 -213 -55 -42 -139 -38 -184 11 -11 12 -75 130 -142 262 -68 132 -174 340 -237 463 l-114 222 -185 0 -185 0 24 -42z"/>
    <path d="M19370 12375 l0 -745 170 0 170 0 0 745 0 745 -170 0 -170 0 0 -745z"/>
    <path d="M22192 12588 l4 -533 25 -76 c62 -182 196 -302 399 -356 92 -24 321 -24 410 0 141 38 263 116 332 211 l28 39 0 -121 0 -122 170 0 170 0 0 745 0 745 -170 0 -170 0 0 -467 c0 -516 -4 -551 -60 -663 -86 -170 -246 -259 -445 -247 -209 13 -327 127 -349 337 -3 25 -5 269 -5 543 l-1 497 -171 0 -170 0 3 -532z"/>
    <path d="M29270 12926 c0 -90 -3 -171 -6 -180 -5 -12 -21 -16 -75 -16 l-69 0 0 -60 0 -60 64 0 c40 0 68 -5 74 -13 8 -9 12 -146 14 -424 l3 -411 31 -39 c74 -93 226 -110 385 -41 l47 20 -20 59 -20 59 -40 -21 c-58 -30 -130 -36 -177 -15 -72 33 -71 30 -71 438 0 199 4 369 8 376 7 9 67 12 268 10 l259 -3 5 -410 c6 -455 3 -441 74 -503 46 -40 104 -55 191 -49 66 4 178 36 198 56 5 5 2 31 -9 64 l-17 55 -43 -19 c-94 -42 -185 -33 -224 21 -20 28 -20 40 -18 407 l3 378 118 3 117 3 0 60 0 60 -109 -2 c-60 -1 -114 2 -120 5 -7 5 -11 67 -11 182 l0 175 -72 -3 -73 -3 -2 -159 c-1 -88 -4 -168 -6 -178 -5 -17 -20 -18 -269 -16 l-263 3 -3 178 -2 177 -70 0 -70 0 0 -164z"/>
    <path d="M28029 12726 c-81 -23 -152 -61 -218 -116 -83 -69 -95 -63 -99 44 l-3 76 -64 0 -65 0 0 -535 0 -535 70 0 70 0 0 326 0 325 27 57 c35 74 130 169 208 206 78 38 175 46 240 22 71 -28 115 -92 131 -193 5 -26 9 -51 10 -55 1 -5 2 -161 3 -348 l1 -340 70 0 70 0 0 365 c0 295 -3 381 -16 442 -26 126 -75 202 -159 246 -50 26 -205 33 -276 13z"/>
    <path d="M30897 12725 c-172 -47 -310 -182 -368 -360 -32 -97 -32 -251 0 -345 82 -236 274 -380 508 -380 179 0 328 71 425 204 15 21 28 45 28 52 0 7 -26 20 -57 29 -54 16 -57 16 -67 -2 -26 -47 -101 -113 -159 -139 -55 -26 -73 -29 -162 -29 -92 1 -105 3 -161 32 -117 61 -214 193 -217 299 l-2 49 453 3 452 2 0 59 c0 76 -32 198 -71 270 -36 69 -128 164 -196 204 -111 64 -283 86 -406 52z m308 -133 c37 -18 84 -50 109 -77 51 -52 102 -150 112 -212 6 -37 4 -44 -14 -50 -11 -5 -185 -7 -385 -5 -414 3 -389 -3 -362 87 40 139 152 252 282 285 71 18 186 5 258 -28z"/>
    <path d="M32222 12729 c-73 -14 -147 -54 -208 -113 -32 -31 -61 -56 -64 -56 -23 1 -31 24 -33 91 l-2 74 -65 0 -65 0 -3 -532 -2 -533 70 0 70 0 0 333 0 333 27 55 c56 112 167 191 298 214 l70 11 0 64 c0 60 -1 63 -25 66 -14 1 -44 -2 -68 -7z"/>
    <path d="M28770 12195 l1 -535 74 0 75 0 0 535 0 535 -75 0 -75 0 0 -535z"/>
  </g>
</svg>